<mxfile host="app.diagrams.net" agent="Mozilla/5.0 (Windows NT 10.0; Win64; x64) AppleWebKit/537.36 (KHTML, like Gecko) Chrome/131.0.0.0 Safari/537.36 Edg/131.0.0.0" version="25.0.3">
  <diagram name="Page-1" id="CzHkSmQw4757r8ijMxCl">
    <mxGraphModel dx="1445" dy="1423" grid="1" gridSize="10" guides="1" tooltips="1" connect="1" arrows="1" fold="1" page="1" pageScale="1" pageWidth="850" pageHeight="1100" math="0" shadow="0">
      <root>
        <mxCell id="0" />
        <mxCell id="1" parent="0" />
        <mxCell id="cxjCpPYayedbtFI2TgHQ-1" value="" style="edgeStyle=orthogonalEdgeStyle;rounded=0;orthogonalLoop=1;jettySize=auto;html=1;" edge="1" parent="1" source="cxjCpPYayedbtFI2TgHQ-2" target="cxjCpPYayedbtFI2TgHQ-4">
          <mxGeometry relative="1" as="geometry" />
        </mxCell>
        <mxCell id="cxjCpPYayedbtFI2TgHQ-2" value="&lt;font data-font-src=&quot;https://fonts.googleapis.com/css?family=Sarabun&quot; face=&quot;Sarabun&quot;&gt;Start&lt;/font&gt;" style="ellipse;whiteSpace=wrap;html=1;" vertex="1" parent="1">
          <mxGeometry x="-684.0000000000001" y="-1070" width="130" height="30" as="geometry" />
        </mxCell>
        <mxCell id="cxjCpPYayedbtFI2TgHQ-3" value="" style="edgeStyle=orthogonalEdgeStyle;rounded=0;orthogonalLoop=1;jettySize=auto;html=1;" edge="1" parent="1" source="cxjCpPYayedbtFI2TgHQ-4" target="cxjCpPYayedbtFI2TgHQ-7">
          <mxGeometry relative="1" as="geometry" />
        </mxCell>
        <mxCell id="cxjCpPYayedbtFI2TgHQ-4" value="เปิดไฟล์&amp;nbsp;a15-2.txt&amp;nbsp;&lt;span style=&quot;color: rgba(0, 0, 0, 0); font-family: monospace; font-size: 0px; text-align: start; text-wrap-mode: nowrap;&quot;&gt;%3CmxGraphModel%3E%3Croot%3E%3CmxCell%20id%3D%220%22%2F%3E%3CmxCell%20id%3D%221%22%20parent%3D%220%22%2F%3E%3CmxCell%20id%3D%222%22%20value%3D%22%E0%B8%81%E0%B8%B3%E0%B8%AB%E0%B8%99%E0%B8%94%E0%B8%95%E0%B8%B1%E0%B8%A7%E0%B9%81%E0%B8%9B%E0%B8%A3%20arr%22%20style%3D%22rounded%3D0%3BwhiteSpace%3Dwrap%3Bhtml%3D1%3B%22%20vertex%3D%221%22%20parent%3D%221%22%3E%3CmxGeometry%20x%3D%22-680%22%20y%3D%22-980%22%20width%3D%22160%22%20height%3D%2240%22%20as%3D%22geometry%22%2F%3E%3C%2FmxCell%3E%3C%2Froot%3E%3C%2FmxGraphModel%3E&lt;/span&gt;" style="rounded=0;whiteSpace=wrap;html=1;" vertex="1" parent="1">
          <mxGeometry x="-700" y="-1010" width="160" height="40" as="geometry" />
        </mxCell>
        <mxCell id="cxjCpPYayedbtFI2TgHQ-5" value="" style="edgeStyle=orthogonalEdgeStyle;rounded=0;orthogonalLoop=1;jettySize=auto;html=1;" edge="1" parent="1" target="cxjCpPYayedbtFI2TgHQ-8">
          <mxGeometry relative="1" as="geometry">
            <mxPoint x="-618.5" y="-790" as="sourcePoint" />
          </mxGeometry>
        </mxCell>
        <mxCell id="cxjCpPYayedbtFI2TgHQ-6" value="" style="edgeStyle=orthogonalEdgeStyle;rounded=0;orthogonalLoop=1;jettySize=auto;html=1;" edge="1" parent="1" source="cxjCpPYayedbtFI2TgHQ-7" target="cxjCpPYayedbtFI2TgHQ-12">
          <mxGeometry relative="1" as="geometry" />
        </mxCell>
        <mxCell id="cxjCpPYayedbtFI2TgHQ-7" value="เปิดได้หรือไม่" style="rhombus;whiteSpace=wrap;html=1;" vertex="1" parent="1">
          <mxGeometry x="-684" y="-940" width="128" height="80" as="geometry" />
        </mxCell>
        <mxCell id="cxjCpPYayedbtFI2TgHQ-8" value="กำหนดตัวแปร grade" style="rounded=0;whiteSpace=wrap;html=1;" vertex="1" parent="1">
          <mxGeometry x="-698.5" y="-760" width="160" height="40" as="geometry" />
        </mxCell>
        <mxCell id="cxjCpPYayedbtFI2TgHQ-9" value="" style="edgeStyle=orthogonalEdgeStyle;rounded=0;orthogonalLoop=1;jettySize=auto;html=1;" edge="1" parent="1" source="cxjCpPYayedbtFI2TgHQ-10" target="cxjCpPYayedbtFI2TgHQ-25">
          <mxGeometry relative="1" as="geometry" />
        </mxCell>
        <mxCell id="cxjCpPYayedbtFI2TgHQ-10" value="อ่านไฟล์&amp;nbsp;&amp;nbsp;a15-3.txt&amp;nbsp;" style="rounded=0;whiteSpace=wrap;html=1;" vertex="1" parent="1">
          <mxGeometry x="-700" y="-470" width="160" height="40" as="geometry" />
        </mxCell>
        <mxCell id="cxjCpPYayedbtFI2TgHQ-11" style="edgeStyle=orthogonalEdgeStyle;rounded=0;orthogonalLoop=1;jettySize=auto;html=1;entryX=1;entryY=0.5;entryDx=0;entryDy=0;" edge="1" parent="1" target="cxjCpPYayedbtFI2TgHQ-47">
          <mxGeometry relative="1" as="geometry">
            <mxPoint x="-398" y="-880" as="sourcePoint" />
            <mxPoint x="-540" y="335" as="targetPoint" />
            <Array as="points">
              <mxPoint x="-410" y="-880" />
              <mxPoint x="-410" y="335" />
            </Array>
          </mxGeometry>
        </mxCell>
        <mxCell id="cxjCpPYayedbtFI2TgHQ-12" value="Err" style="rounded=0;whiteSpace=wrap;html=1;shape=parallelogram;perimeter=parallelogramPerimeter;fixedSize=1;" vertex="1" parent="1">
          <mxGeometry x="-490" y="-920" width="160" height="40" as="geometry" />
        </mxCell>
        <mxCell id="cxjCpPYayedbtFI2TgHQ-13" value="&lt;font data-font-src=&quot;https://fonts.googleapis.com/css?family=Sarabun&quot; face=&quot;Sarabun&quot;&gt;End&lt;/font&gt;" style="ellipse;whiteSpace=wrap;html=1;" vertex="1" parent="1">
          <mxGeometry x="-682.0000000000001" y="390" width="130" height="30" as="geometry" />
        </mxCell>
        <mxCell id="cxjCpPYayedbtFI2TgHQ-14" value="" style="edgeStyle=orthogonalEdgeStyle;rounded=0;orthogonalLoop=1;jettySize=auto;html=1;" edge="1" parent="1" target="cxjCpPYayedbtFI2TgHQ-15">
          <mxGeometry relative="1" as="geometry">
            <mxPoint x="-619" y="-860" as="sourcePoint" />
          </mxGeometry>
        </mxCell>
        <mxCell id="cxjCpPYayedbtFI2TgHQ-15" value="กำหนดตัวแปร name" style="rounded=0;whiteSpace=wrap;html=1;" vertex="1" parent="1">
          <mxGeometry x="-699" y="-830" width="160" height="40" as="geometry" />
        </mxCell>
        <mxCell id="cxjCpPYayedbtFI2TgHQ-16" value="T" style="text;html=1;align=center;verticalAlign=middle;resizable=0;points=[];autosize=1;strokeColor=none;fillColor=none;" vertex="1" parent="1">
          <mxGeometry x="-610" y="-870" width="30" height="30" as="geometry" />
        </mxCell>
        <mxCell id="cxjCpPYayedbtFI2TgHQ-17" value="F" style="text;html=1;align=center;verticalAlign=middle;resizable=0;points=[];autosize=1;strokeColor=none;fillColor=none;" vertex="1" parent="1">
          <mxGeometry x="-560" y="-930" width="30" height="30" as="geometry" />
        </mxCell>
        <mxCell id="cxjCpPYayedbtFI2TgHQ-18" value="กำหนดตัวแปร age" style="rounded=0;whiteSpace=wrap;html=1;" vertex="1" parent="1">
          <mxGeometry x="-698.5" y="-690" width="160" height="40" as="geometry" />
        </mxCell>
        <mxCell id="cxjCpPYayedbtFI2TgHQ-19" value="" style="edgeStyle=orthogonalEdgeStyle;rounded=0;orthogonalLoop=1;jettySize=auto;html=1;" edge="1" parent="1" target="cxjCpPYayedbtFI2TgHQ-18">
          <mxGeometry relative="1" as="geometry">
            <mxPoint x="-618.5" y="-720" as="sourcePoint" />
          </mxGeometry>
        </mxCell>
        <mxCell id="cxjCpPYayedbtFI2TgHQ-20" value="" style="edgeStyle=orthogonalEdgeStyle;rounded=0;orthogonalLoop=1;jettySize=auto;html=1;" edge="1" parent="1" target="cxjCpPYayedbtFI2TgHQ-22">
          <mxGeometry relative="1" as="geometry">
            <mxPoint x="-619" y="-650" as="sourcePoint" />
          </mxGeometry>
        </mxCell>
        <mxCell id="cxjCpPYayedbtFI2TgHQ-21" value="" style="edgeStyle=orthogonalEdgeStyle;rounded=0;orthogonalLoop=1;jettySize=auto;html=1;" edge="1" parent="1" source="cxjCpPYayedbtFI2TgHQ-22" target="cxjCpPYayedbtFI2TgHQ-24">
          <mxGeometry relative="1" as="geometry" />
        </mxCell>
        <mxCell id="cxjCpPYayedbtFI2TgHQ-22" value="กำหนดตัวแปร sex" style="rounded=0;whiteSpace=wrap;html=1;" vertex="1" parent="1">
          <mxGeometry x="-699" y="-620" width="160" height="40" as="geometry" />
        </mxCell>
        <mxCell id="cxjCpPYayedbtFI2TgHQ-23" value="" style="edgeStyle=orthogonalEdgeStyle;rounded=0;orthogonalLoop=1;jettySize=auto;html=1;" edge="1" parent="1" source="cxjCpPYayedbtFI2TgHQ-24" target="cxjCpPYayedbtFI2TgHQ-10">
          <mxGeometry relative="1" as="geometry" />
        </mxCell>
        <mxCell id="cxjCpPYayedbtFI2TgHQ-24" value="" style="ellipse;whiteSpace=wrap;html=1;aspect=fixed;" vertex="1" parent="1">
          <mxGeometry x="-635" y="-540" width="30" height="30" as="geometry" />
        </mxCell>
        <mxCell id="cxjCpPYayedbtFI2TgHQ-25" value="เอาข้อความใน&amp;nbsp;&amp;nbsp;a15-3.txt&amp;nbsp; ใส่ name" style="rounded=0;whiteSpace=wrap;html=1;" vertex="1" parent="1">
          <mxGeometry x="-700" y="-390" width="160" height="40" as="geometry" />
        </mxCell>
        <mxCell id="cxjCpPYayedbtFI2TgHQ-26" value="" style="edgeStyle=orthogonalEdgeStyle;rounded=0;orthogonalLoop=1;jettySize=auto;html=1;" edge="1" parent="1" target="cxjCpPYayedbtFI2TgHQ-27">
          <mxGeometry relative="1" as="geometry">
            <mxPoint x="-619" y="-350" as="sourcePoint" />
          </mxGeometry>
        </mxCell>
        <mxCell id="cxjCpPYayedbtFI2TgHQ-27" value="เอาข้อความใน&amp;nbsp;&amp;nbsp;a15-3.txt&amp;nbsp; ใส่ age" style="rounded=0;whiteSpace=wrap;html=1;" vertex="1" parent="1">
          <mxGeometry x="-699" y="-310" width="160" height="40" as="geometry" />
        </mxCell>
        <mxCell id="cxjCpPYayedbtFI2TgHQ-28" value="" style="edgeStyle=orthogonalEdgeStyle;rounded=0;orthogonalLoop=1;jettySize=auto;html=1;" edge="1" parent="1" target="cxjCpPYayedbtFI2TgHQ-29">
          <mxGeometry relative="1" as="geometry">
            <mxPoint x="-619" y="-270" as="sourcePoint" />
          </mxGeometry>
        </mxCell>
        <mxCell id="cxjCpPYayedbtFI2TgHQ-29" value="เอาข้อความใน&amp;nbsp;&amp;nbsp;a15-3.txt&amp;nbsp; ใส่ grade" style="rounded=0;whiteSpace=wrap;html=1;" vertex="1" parent="1">
          <mxGeometry x="-699" y="-230" width="160" height="40" as="geometry" />
        </mxCell>
        <mxCell id="cxjCpPYayedbtFI2TgHQ-30" value="" style="edgeStyle=orthogonalEdgeStyle;rounded=0;orthogonalLoop=1;jettySize=auto;html=1;" edge="1" parent="1" target="cxjCpPYayedbtFI2TgHQ-32">
          <mxGeometry relative="1" as="geometry">
            <mxPoint x="-619" y="-190" as="sourcePoint" />
          </mxGeometry>
        </mxCell>
        <mxCell id="cxjCpPYayedbtFI2TgHQ-31" value="" style="edgeStyle=orthogonalEdgeStyle;rounded=0;orthogonalLoop=1;jettySize=auto;html=1;" edge="1" parent="1" source="cxjCpPYayedbtFI2TgHQ-32" target="cxjCpPYayedbtFI2TgHQ-34">
          <mxGeometry relative="1" as="geometry" />
        </mxCell>
        <mxCell id="cxjCpPYayedbtFI2TgHQ-32" value="เอาข้อความใน&amp;nbsp;&amp;nbsp;a15-3.txt&amp;nbsp; ใส่ sex" style="rounded=0;whiteSpace=wrap;html=1;" vertex="1" parent="1">
          <mxGeometry x="-699" y="-150" width="160" height="40" as="geometry" />
        </mxCell>
        <mxCell id="cxjCpPYayedbtFI2TgHQ-33" value="" style="edgeStyle=orthogonalEdgeStyle;rounded=0;orthogonalLoop=1;jettySize=auto;html=1;" edge="1" parent="1" source="cxjCpPYayedbtFI2TgHQ-34" target="cxjCpPYayedbtFI2TgHQ-35">
          <mxGeometry relative="1" as="geometry" />
        </mxCell>
        <mxCell id="cxjCpPYayedbtFI2TgHQ-34" value="ปริ้น name" style="rounded=0;whiteSpace=wrap;html=1;shape=parallelogram;perimeter=parallelogramPerimeter;fixedSize=1;" vertex="1" parent="1">
          <mxGeometry x="-698.5" y="-70" width="160" height="40" as="geometry" />
        </mxCell>
        <mxCell id="cxjCpPYayedbtFI2TgHQ-35" value="ปริ้น age" style="rounded=0;whiteSpace=wrap;html=1;shape=parallelogram;perimeter=parallelogramPerimeter;fixedSize=1;" vertex="1" parent="1">
          <mxGeometry x="-698.5" width="160" height="40" as="geometry" />
        </mxCell>
        <mxCell id="cxjCpPYayedbtFI2TgHQ-36" value="" style="edgeStyle=orthogonalEdgeStyle;rounded=0;orthogonalLoop=1;jettySize=auto;html=1;" edge="1" parent="1" target="cxjCpPYayedbtFI2TgHQ-37">
          <mxGeometry relative="1" as="geometry">
            <mxPoint x="-619.5" y="40" as="sourcePoint" />
          </mxGeometry>
        </mxCell>
        <mxCell id="cxjCpPYayedbtFI2TgHQ-37" value="ปริ้น grade" style="rounded=0;whiteSpace=wrap;html=1;shape=parallelogram;perimeter=parallelogramPerimeter;fixedSize=1;" vertex="1" parent="1">
          <mxGeometry x="-699" y="70" width="160" height="40" as="geometry" />
        </mxCell>
        <mxCell id="cxjCpPYayedbtFI2TgHQ-38" value="" style="edgeStyle=orthogonalEdgeStyle;rounded=0;orthogonalLoop=1;jettySize=auto;html=1;" edge="1" parent="1" source="cxjCpPYayedbtFI2TgHQ-39" target="cxjCpPYayedbtFI2TgHQ-43">
          <mxGeometry relative="1" as="geometry" />
        </mxCell>
        <mxCell id="cxjCpPYayedbtFI2TgHQ-39" value="ปริ้น sex" style="rounded=0;whiteSpace=wrap;html=1;shape=parallelogram;perimeter=parallelogramPerimeter;fixedSize=1;" vertex="1" parent="1">
          <mxGeometry x="-698.5" y="140" width="160" height="40" as="geometry" />
        </mxCell>
        <mxCell id="cxjCpPYayedbtFI2TgHQ-40" value="" style="edgeStyle=orthogonalEdgeStyle;rounded=0;orthogonalLoop=1;jettySize=auto;html=1;" edge="1" parent="1" target="cxjCpPYayedbtFI2TgHQ-39">
          <mxGeometry relative="1" as="geometry">
            <mxPoint x="-619" y="110" as="sourcePoint" />
          </mxGeometry>
        </mxCell>
        <mxCell id="cxjCpPYayedbtFI2TgHQ-41" style="edgeStyle=orthogonalEdgeStyle;rounded=0;orthogonalLoop=1;jettySize=auto;html=1;entryX=0;entryY=0.5;entryDx=0;entryDy=0;" edge="1" parent="1" source="cxjCpPYayedbtFI2TgHQ-43" target="cxjCpPYayedbtFI2TgHQ-24">
          <mxGeometry relative="1" as="geometry">
            <Array as="points">
              <mxPoint x="-790" y="250" />
              <mxPoint x="-790" y="-525" />
            </Array>
          </mxGeometry>
        </mxCell>
        <mxCell id="cxjCpPYayedbtFI2TgHQ-42" value="" style="edgeStyle=orthogonalEdgeStyle;rounded=0;orthogonalLoop=1;jettySize=auto;html=1;" edge="1" parent="1" source="cxjCpPYayedbtFI2TgHQ-43" target="cxjCpPYayedbtFI2TgHQ-47">
          <mxGeometry relative="1" as="geometry" />
        </mxCell>
        <mxCell id="cxjCpPYayedbtFI2TgHQ-43" value="ครบทุกตัวแล้วหรือไม่" style="rhombus;whiteSpace=wrap;html=1;" vertex="1" parent="1">
          <mxGeometry x="-682" y="210" width="128" height="80" as="geometry" />
        </mxCell>
        <mxCell id="cxjCpPYayedbtFI2TgHQ-44" value="F" style="text;html=1;align=center;verticalAlign=middle;resizable=0;points=[];autosize=1;strokeColor=none;fillColor=none;" vertex="1" parent="1">
          <mxGeometry x="-700" y="210" width="30" height="30" as="geometry" />
        </mxCell>
        <mxCell id="cxjCpPYayedbtFI2TgHQ-45" value="T" style="text;html=1;align=center;verticalAlign=middle;resizable=0;points=[];autosize=1;strokeColor=none;fillColor=none;" vertex="1" parent="1">
          <mxGeometry x="-605" y="290" width="30" height="30" as="geometry" />
        </mxCell>
        <mxCell id="cxjCpPYayedbtFI2TgHQ-46" value="" style="edgeStyle=orthogonalEdgeStyle;rounded=0;orthogonalLoop=1;jettySize=auto;html=1;" edge="1" parent="1" source="cxjCpPYayedbtFI2TgHQ-47" target="cxjCpPYayedbtFI2TgHQ-13">
          <mxGeometry relative="1" as="geometry" />
        </mxCell>
        <mxCell id="cxjCpPYayedbtFI2TgHQ-47" value="" style="ellipse;whiteSpace=wrap;html=1;aspect=fixed;" vertex="1" parent="1">
          <mxGeometry x="-632" y="320" width="30" height="30" as="geometry" />
        </mxCell>
      </root>
    </mxGraphModel>
  </diagram>
</mxfile>
